<?xml version="1.0" encoding="UTF-8" standalone="no"?>
<!-- Created with Inkscape (http://www.inkscape.org/) -->

<svg
   xmlns:dc="http://purl.org/dc/elements/1.1/"
   xmlns:cc="http://creativecommons.org/ns#"
   xmlns:rdf="http://www.w3.org/1999/02/22-rdf-syntax-ns#"
   xmlns:svg="http://www.w3.org/2000/svg"
   xmlns="http://www.w3.org/2000/svg"
   xmlns:xlink="http://www.w3.org/1999/xlink"
   xmlns:sodipodi="http://sodipodi.sourceforge.net/DTD/sodipodi-0.dtd"
   xmlns:inkscape="http://www.inkscape.org/namespaces/inkscape"
   width="32"
   height="32"
   viewBox="0 0 32 32"
   version="1.1"
   id="svg8"
   inkscape:version="0.92.2 (5c3e80d, 2017-08-06)"
   sodipodi:docname="icon_mini.svg"
   inkscape:export-filename="D:\Documents\prismarinejs.github.io\dist\images\icon_mini.png"
   inkscape:export-xdpi="767.53156"
   inkscape:export-ydpi="767.53156">
  <defs
     id="defs2">
    <linearGradient
       inkscape:collect="always"
       id="linearGradient892">
      <stop
         style="stop-color:#13b181;stop-opacity:1"
         offset="0"
         id="stop888" />
      <stop
         style="stop-color:#77e3c3;stop-opacity:1"
         offset="1"
         id="stop890" />
    </linearGradient>
    <radialGradient
       inkscape:collect="always"
       xlink:href="#linearGradient892"
       id="radialGradient896"
       cx="32.01685"
       cy="320.53278"
       fx="32.01685"
       fy="320.53278"
       r="16.008427"
       gradientTransform="matrix(1.9983914,-1.9983914,1.9984537,1.9984537,-672.53527,-256.05445)"
       gradientUnits="userSpaceOnUse" />
  </defs>
  <sodipodi:namedview
     id="base"
     pagecolor="#ffffff"
     bordercolor="#666666"
     borderopacity="1.0"
     inkscape:pageopacity="0.0"
     inkscape:pageshadow="2"
     inkscape:zoom="11.313708"
     inkscape:cx="2.8352232"
     inkscape:cy="15.016634"
     inkscape:document-units="px"
     inkscape:current-layer="layer1"
     showgrid="false"
     units="px"
     inkscape:window-width="1920"
     inkscape:window-height="1186"
     inkscape:window-x="-11"
     inkscape:window-y="-11"
     inkscape:window-maximized="1"
     showguides="true"
     inkscape:guide-bbox="true"
     inkscape:snap-bbox="true"
     inkscape:bbox-nodes="true"
     inkscape:bbox-paths="true"
     inkscape:object-paths="true"
     inkscape:snap-intersection-paths="true"
     inkscape:snap-smooth-nodes="true"
     inkscape:snap-nodes="true">
    <inkscape:grid
       type="xygrid"
       id="grid815" />
  </sodipodi:namedview>
  <metadata
     id="metadata5">
    <rdf:RDF>
      <cc:Work
         rdf:about="">
        <dc:format>image/svg+xml</dc:format>
        <dc:type
           rdf:resource="http://purl.org/dc/dcmitype/StillImage" />
        <dc:title></dc:title>
      </cc:Work>
    </rdf:RDF>
  </metadata>
  <g
     inkscape:label="Layer 1"
     inkscape:groupmode="layer"
     id="layer1"
     transform="translate(0,-288.53333)">
    <path
       style="fill:url(#radialGradient896);fill-opacity:1;stroke:none;stroke-width:2.7454474px;stroke-linecap:butt;stroke-linejoin:miter;stroke-opacity:1"
       d="M 32.016851,288.52833 0,288.54118 v 32.005 l 32.016851,-0.0129 z"
       id="path902" />
    <path
       style="fill:#f2fefa;fill-opacity:1;stroke:none;stroke-width:2.7454474px;stroke-linecap:butt;stroke-linejoin:miter;stroke-opacity:1"
       d="m 24.201172,304.24407 c -0.500035,10e-4 -0.996244,0.0707 -1.496094,0.20313 -0.488811,0.12219 -0.940555,0.3216 -1.351563,0.59961 -0.399667,0.27749 -0.718483,0.64179 -0.96289,1.08593 -0.24442,0.43323 -0.371094,0.95191 -0.371094,1.5625 0,0.4557 0.07661,0.85964 0.232422,1.21485 0.155257,0.35546 0.377037,0.67601 0.666016,0.96484 0.288682,0.27788 0.632732,0.53062 1.021484,0.75196 0.389038,0.22104 0.821228,0.4287 1.298828,0.61328 0.399666,0.15237 0.74245,0.30592 1.03125,0.45117 0.2999,0.14437 0.543879,0.29081 0.732422,0.44531 0.20014,0.14679 0.344434,0.30426 0.433594,0.48242 0.08916,0.16689 0.134765,0.36291 0.134765,0.58399 -0.01188,0.46648 -0.190974,0.8154 -0.535156,1.04883 -0.34418,0.22168 -0.853085,0.32907 -1.519531,0.33007 -0.433325,2.6e-4 -0.91669,-0.0442 -1.460938,-0.14648 -0.533093,-0.10019 -1.079419,-0.25861 -1.634765,-0.48047 l -0.429688,1.98438 c 0.610896,0.20998 1.221694,0.35465 1.84375,0.44335 0.633093,0.0998 1.225284,0.1503 1.769531,0.1504 0.577365,-2.5e-4 1.124436,-0.0677 1.646485,-0.20118 0.533093,-0.14425 1.010931,-0.35745 1.421875,-0.64648 0.410882,-0.28858 0.72964,-0.65547 0.96289,-1.09961 C 27.879166,314.14125 28,313.61951 28,313.03118 c 0,-0.52254 -0.07658,-0.96592 -0.232422,-1.33203 -0.155254,-0.37757 -0.383928,-0.7014 -0.683594,-0.97851 -0.2999,-0.28891 -0.650878,-0.53739 -1.050781,-0.75 -0.39967,-0.22014 -0.845291,-0.42803 -1.333984,-0.63086 -0.38904,-0.15433 -0.724873,-0.29487 -1.013672,-0.43164 -0.277457,-0.14365 -0.508132,-0.28886 -0.697266,-0.4336 -0.177682,-0.14219 -0.311231,-0.29667 -0.40039,-0.45117 -0.08857,-0.16713 -0.132813,-0.3539 -0.132813,-0.56445 0,-0.24448 0.04239,-0.45019 0.144531,-0.60547 0.110977,-0.16651 0.257878,-0.29483 0.435547,-0.39453 0.177704,-0.10228 0.381527,-0.16978 0.603516,-0.20118 0.23318,-0.0476 0.468843,-0.0701 0.71289,-0.0703 0.410882,2.6e-4 0.83633,0.0373 1.269532,0.10156 0.43332,0.0666 0.861102,0.17923 1.283203,0.33399 l 0.417968,-1.94531 v -0.002 c -0.433319,-0.14327 -0.918021,-0.2506 -1.451171,-0.3164 -0.533091,-0.0779 -1.092323,-0.11483 -1.669922,-0.11524 z m -6.101563,0.19727 -2.4375,0.004 v 8.67579 c -0.01188,0.54401 -0.132062,0.92657 -0.365234,1.14843 -0.23318,0.20921 -0.588991,0.31392 -1.066406,0.31446 -0.122201,-0.002 -0.276532,-2.3e-4 -0.464844,-0.0156 -0.1889,-0.0239 -0.359783,-0.0392 -0.515625,-0.0664 v 1.94921 c 0.188903,0.0175 0.406165,0.034 0.650391,0.0469 0.244405,0.0244 0.479486,0.0347 0.71289,0.0352 1.188441,-4.9e-4 2.066372,-0.26723 2.632813,-0.78907 0.566735,-0.5218 0.853515,-1.31373 0.853515,-2.39062 z"
       id="path900"
       inkscape:connector-curvature="0" />
    <path
       style="color:#000000;font-style:normal;font-variant:normal;font-weight:normal;font-stretch:normal;font-size:medium;line-height:normal;font-family:sans-serif;font-variant-ligatures:normal;font-variant-position:normal;font-variant-caps:normal;font-variant-numeric:normal;font-variant-alternates:normal;font-feature-settings:normal;text-indent:0;text-align:start;text-decoration:none;text-decoration-line:none;text-decoration-style:solid;text-decoration-color:#000000;letter-spacing:normal;word-spacing:normal;text-transform:none;writing-mode:lr-tb;direction:ltr;text-orientation:mixed;dominant-baseline:auto;baseline-shift:baseline;text-anchor:start;white-space:normal;shape-padding:0;clip-rule:nonzero;display:inline;overflow:visible;visibility:visible;opacity:0.5;isolation:auto;mix-blend-mode:normal;color-interpolation:sRGB;color-interpolation-filters:linearRGB;solid-color:#000000;solid-opacity:1;vector-effect:none;fill:#13b181;fill-opacity:1;fill-rule:nonzero;stroke:none;stroke-width:4;stroke-linecap:butt;stroke-linejoin:miter;stroke-miterlimit:1.99999988;stroke-dasharray:none;stroke-dashoffset:0;stroke-opacity:1;paint-order:fill markers stroke;color-rendering:auto;image-rendering:auto;shape-rendering:auto;text-rendering:auto;enable-background:accumulate"
       d="M 32.017578 -0.005859375 L 0 0.0078125 L 0 32.013672 L 32.017578 32 L 32.017578 -0.005859375 z M 2 2 L 30 2 L 30 30 L 2 30 L 2 2 z "
       transform="translate(0,288.53333)"
       id="rect909" />
  </g>
</svg>
